<svg xmlns="http://www.w3.org/2000/svg" viewBox="0 0 45.24 44.13"><defs><style>.a{fill:#7f7f7f;}</style></defs><title>Asset 7</title><path class="a" d="M42.21,11.27A22.61,22.61,0,0,0,34,3,22.13,22.13,0,0,0,22.62,0,22.13,22.13,0,0,0,11.27,3,22.61,22.61,0,0,0,3,11.27,22.13,22.13,0,0,0,0,22.62a22,22,0,0,0,4.31,13.3,22.22,22.22,0,0,0,11.15,8.17,1.3,1.3,0,0,0,1.18-.21A1.12,1.12,0,0,0,17,43c0-.06,0-.59,0-1.59s0-1.87,0-2.62l-.67.12a8.65,8.65,0,0,1-1.64.1,12.4,12.4,0,0,1-2-.21,4.53,4.53,0,0,1-2-.88,3.65,3.65,0,0,1-1.29-1.81l-.3-.68a7.24,7.24,0,0,0-.93-1.5,3.59,3.59,0,0,0-1.28-1.12l-.2-.15a1.82,1.82,0,0,1-.39-.35A2.13,2.13,0,0,1,6,31.9c-.06-.14,0-.25.15-.34A1.86,1.86,0,0,1,7,31.43l.59.08a4.44,4.44,0,0,1,1.46.71,4.64,4.64,0,0,1,1.42,1.53,5.2,5.2,0,0,0,1.64,1.84,3.42,3.42,0,0,0,1.93.64,8.18,8.18,0,0,0,1.68-.15,6.2,6.2,0,0,0,1.32-.44,4.78,4.78,0,0,1,1.45-3,18.66,18.66,0,0,1-3-.53,11.66,11.66,0,0,1-2.77-1.15,7.9,7.9,0,0,1-2.37-2,9.4,9.4,0,0,1-1.55-3.09,14.82,14.82,0,0,1-.6-4.42,8.59,8.59,0,0,1,2.32-6.07,8,8,0,0,1,.21-6,4.09,4.09,0,0,1,2.53.39,16.65,16.65,0,0,1,2.46,1.14c.52.31.94.58,1.25.79a21.46,21.46,0,0,1,11.32,0l1.11-.7a15.21,15.21,0,0,1,2.71-1.3,3.86,3.86,0,0,1,2.39-.32,7.87,7.87,0,0,1,.24,6,8.61,8.61,0,0,1,2.32,6.07,14.88,14.88,0,0,1-.6,4.43A9.08,9.08,0,0,1,34.89,29a8.37,8.37,0,0,1-2.39,2,11.66,11.66,0,0,1-2.77,1.15,18.66,18.66,0,0,1-3,.53,5.24,5.24,0,0,1,1.54,4.19V43a1.18,1.18,0,0,0,.36.88,1.28,1.28,0,0,0,1.17.21,22.22,22.22,0,0,0,11.15-8.17,22,22,0,0,0,4.31-13.3A22.13,22.13,0,0,0,42.21,11.27Z"/></svg>